<mxfile host="Electron" modified="2024-01-06T16:14:28.301Z" agent="Mozilla/5.0 (Windows NT 10.0; Win64; x64) AppleWebKit/537.36 (KHTML, like Gecko) draw.io/22.1.16 Chrome/120.0.6099.109 Electron/28.1.0 Safari/537.36" etag="6LfdJ8qVrYWm5Yqp8Rxi" version="22.1.16" type="device">
  <diagram name="Page-1" id="cAebXM3yVODnyZ0mliyC">
    <mxGraphModel dx="1036" dy="607" grid="1" gridSize="10" guides="1" tooltips="1" connect="1" arrows="1" fold="1" page="1" pageScale="1" pageWidth="1169" pageHeight="827" math="0" shadow="0">
      <root>
        <mxCell id="0" />
        <mxCell id="1" parent="0" />
        <mxCell id="jF_JIcA0f8UIupgreUS_-20" style="edgeStyle=orthogonalEdgeStyle;rounded=0;orthogonalLoop=1;jettySize=auto;html=1;entryX=0;entryY=0.5;entryDx=0;entryDy=0;" edge="1" parent="1" source="jF_JIcA0f8UIupgreUS_-6" target="jF_JIcA0f8UIupgreUS_-12">
          <mxGeometry relative="1" as="geometry" />
        </mxCell>
        <mxCell id="jF_JIcA0f8UIupgreUS_-6" value="&lt;h2&gt;start&lt;/h2&gt;" style="strokeWidth=2;html=1;shape=mxgraph.flowchart.start_2;whiteSpace=wrap;" vertex="1" parent="1">
          <mxGeometry x="40" y="381" width="60" height="66" as="geometry" />
        </mxCell>
        <mxCell id="jF_JIcA0f8UIupgreUS_-7" value="" style="shape=table;html=1;whiteSpace=wrap;startSize=0;container=1;collapsible=0;childLayout=tableLayout;columnLines=0;rowLines=0;fontSize=16;strokeColor=default;" vertex="1" parent="1">
          <mxGeometry x="120" y="372" width="100" height="84" as="geometry" />
        </mxCell>
        <mxCell id="jF_JIcA0f8UIupgreUS_-8" value="" style="shape=tableRow;horizontal=0;startSize=0;swimlaneHead=0;swimlaneBody=0;top=0;left=0;bottom=0;right=0;collapsible=0;dropTarget=0;fillColor=none;points=[[0,0.5],[1,0.5]];portConstraint=eastwest;fontSize=16;strokeColor=inherit;" vertex="1" parent="jF_JIcA0f8UIupgreUS_-7">
          <mxGeometry width="100" height="28" as="geometry" />
        </mxCell>
        <mxCell id="jF_JIcA0f8UIupgreUS_-9" value="0" style="shape=partialRectangle;html=1;whiteSpace=wrap;connectable=0;fillColor=none;top=1;left=1;bottom=1;right=1;overflow=hidden;fontSize=12;strokeColor=inherit;" vertex="1" parent="jF_JIcA0f8UIupgreUS_-8">
          <mxGeometry width="34" height="28" as="geometry">
            <mxRectangle width="34" height="28" as="alternateBounds" />
          </mxGeometry>
        </mxCell>
        <mxCell id="jF_JIcA0f8UIupgreUS_-10" value="30" style="shape=partialRectangle;html=1;whiteSpace=wrap;connectable=0;fillColor=none;top=1;left=1;bottom=1;right=1;overflow=hidden;fontSize=12;strokeColor=inherit;" vertex="1" parent="jF_JIcA0f8UIupgreUS_-8">
          <mxGeometry x="34" width="32" height="28" as="geometry">
            <mxRectangle width="32" height="28" as="alternateBounds" />
          </mxGeometry>
        </mxCell>
        <mxCell id="jF_JIcA0f8UIupgreUS_-11" value="30" style="shape=partialRectangle;html=1;whiteSpace=wrap;connectable=0;fillColor=none;top=1;left=1;bottom=1;right=1;overflow=hidden;fontSize=12;strokeColor=inherit;" vertex="1" parent="jF_JIcA0f8UIupgreUS_-8">
          <mxGeometry x="66" width="34" height="28" as="geometry">
            <mxRectangle width="34" height="28" as="alternateBounds" />
          </mxGeometry>
        </mxCell>
        <mxCell id="jF_JIcA0f8UIupgreUS_-12" value="" style="shape=tableRow;horizontal=0;startSize=0;swimlaneHead=0;swimlaneBody=0;top=0;left=0;bottom=0;right=0;collapsible=0;dropTarget=0;fillColor=none;points=[[0,0.5],[1,0.5]];portConstraint=eastwest;fontSize=16;strokeColor=inherit;" vertex="1" parent="jF_JIcA0f8UIupgreUS_-7">
          <mxGeometry y="28" width="100" height="28" as="geometry" />
        </mxCell>
        <mxCell id="jF_JIcA0f8UIupgreUS_-13" value="" style="shape=partialRectangle;html=1;whiteSpace=wrap;connectable=0;fillColor=none;top=1;left=0;bottom=1;right=0;overflow=hidden;fontSize=12;strokeColor=inherit;" vertex="1" parent="jF_JIcA0f8UIupgreUS_-12">
          <mxGeometry width="34" height="28" as="geometry">
            <mxRectangle width="34" height="28" as="alternateBounds" />
          </mxGeometry>
        </mxCell>
        <mxCell id="jF_JIcA0f8UIupgreUS_-14" value="" style="shape=partialRectangle;html=1;whiteSpace=wrap;connectable=0;fillColor=none;top=1;left=0;bottom=1;right=0;overflow=hidden;fontSize=12;strokeColor=inherit;" vertex="1" parent="jF_JIcA0f8UIupgreUS_-12">
          <mxGeometry x="34" width="32" height="28" as="geometry">
            <mxRectangle width="32" height="28" as="alternateBounds" />
          </mxGeometry>
        </mxCell>
        <mxCell id="jF_JIcA0f8UIupgreUS_-15" value="" style="shape=partialRectangle;html=1;whiteSpace=wrap;connectable=0;fillColor=none;top=1;left=0;bottom=1;right=0;overflow=hidden;fontSize=12;strokeColor=inherit;" vertex="1" parent="jF_JIcA0f8UIupgreUS_-12">
          <mxGeometry x="66" width="34" height="28" as="geometry">
            <mxRectangle width="34" height="28" as="alternateBounds" />
          </mxGeometry>
        </mxCell>
        <mxCell id="jF_JIcA0f8UIupgreUS_-16" value="" style="shape=tableRow;horizontal=0;startSize=0;swimlaneHead=0;swimlaneBody=0;top=0;left=0;bottom=0;right=0;collapsible=0;dropTarget=0;fillColor=none;points=[[0,0.5],[1,0.5]];portConstraint=eastwest;fontSize=16;strokeColor=inherit;" vertex="1" parent="jF_JIcA0f8UIupgreUS_-7">
          <mxGeometry y="56" width="100" height="28" as="geometry" />
        </mxCell>
        <mxCell id="jF_JIcA0f8UIupgreUS_-17" value="0" style="shape=partialRectangle;html=1;whiteSpace=wrap;connectable=0;fillColor=none;top=1;left=1;bottom=1;right=1;overflow=hidden;fontSize=12;strokeColor=inherit;" vertex="1" parent="jF_JIcA0f8UIupgreUS_-16">
          <mxGeometry width="34" height="28" as="geometry">
            <mxRectangle width="34" height="28" as="alternateBounds" />
          </mxGeometry>
        </mxCell>
        <mxCell id="jF_JIcA0f8UIupgreUS_-18" value="0" style="shape=partialRectangle;html=1;whiteSpace=wrap;connectable=0;fillColor=none;top=1;left=1;bottom=1;right=1;overflow=hidden;fontSize=12;strokeColor=inherit;" vertex="1" parent="jF_JIcA0f8UIupgreUS_-16">
          <mxGeometry x="34" width="32" height="28" as="geometry">
            <mxRectangle width="32" height="28" as="alternateBounds" />
          </mxGeometry>
        </mxCell>
        <mxCell id="jF_JIcA0f8UIupgreUS_-19" value="30" style="shape=partialRectangle;html=1;whiteSpace=wrap;connectable=0;fillColor=none;top=1;left=1;bottom=1;right=1;overflow=hidden;fontSize=12;strokeColor=inherit;" vertex="1" parent="jF_JIcA0f8UIupgreUS_-16">
          <mxGeometry x="66" width="34" height="28" as="geometry">
            <mxRectangle width="34" height="28" as="alternateBounds" />
          </mxGeometry>
        </mxCell>
        <mxCell id="jF_JIcA0f8UIupgreUS_-34" value="" style="shape=table;html=1;whiteSpace=wrap;startSize=0;container=1;collapsible=0;childLayout=tableLayout;columnLines=0;rowLines=0;fontSize=16;strokeColor=default;" vertex="1" parent="1">
          <mxGeometry x="240" y="372" width="100" height="84" as="geometry" />
        </mxCell>
        <mxCell id="jF_JIcA0f8UIupgreUS_-35" value="" style="shape=tableRow;horizontal=0;startSize=0;swimlaneHead=0;swimlaneBody=0;top=0;left=0;bottom=0;right=0;collapsible=0;dropTarget=0;fillColor=none;points=[[0,0.5],[1,0.5]];portConstraint=eastwest;fontSize=16;strokeColor=inherit;" vertex="1" parent="jF_JIcA0f8UIupgreUS_-34">
          <mxGeometry width="100" height="28" as="geometry" />
        </mxCell>
        <mxCell id="jF_JIcA0f8UIupgreUS_-36" value="30" style="shape=partialRectangle;html=1;whiteSpace=wrap;connectable=0;fillColor=none;top=1;left=1;bottom=1;right=1;overflow=hidden;fontSize=12;strokeColor=inherit;" vertex="1" parent="jF_JIcA0f8UIupgreUS_-35">
          <mxGeometry width="34" height="28" as="geometry">
            <mxRectangle width="34" height="28" as="alternateBounds" />
          </mxGeometry>
        </mxCell>
        <mxCell id="jF_JIcA0f8UIupgreUS_-37" value="59" style="shape=partialRectangle;html=1;whiteSpace=wrap;connectable=0;fillColor=none;top=1;left=1;bottom=1;right=1;overflow=hidden;fontSize=12;strokeColor=inherit;" vertex="1" parent="jF_JIcA0f8UIupgreUS_-35">
          <mxGeometry x="34" width="32" height="28" as="geometry">
            <mxRectangle width="32" height="28" as="alternateBounds" />
          </mxGeometry>
        </mxCell>
        <mxCell id="jF_JIcA0f8UIupgreUS_-38" value="30" style="shape=partialRectangle;html=1;whiteSpace=wrap;connectable=0;fillColor=none;top=1;left=1;bottom=1;right=1;overflow=hidden;fontSize=12;strokeColor=inherit;" vertex="1" parent="jF_JIcA0f8UIupgreUS_-35">
          <mxGeometry x="66" width="34" height="28" as="geometry">
            <mxRectangle width="34" height="28" as="alternateBounds" />
          </mxGeometry>
        </mxCell>
        <mxCell id="jF_JIcA0f8UIupgreUS_-39" value="" style="shape=tableRow;horizontal=0;startSize=0;swimlaneHead=0;swimlaneBody=0;top=0;left=0;bottom=0;right=0;collapsible=0;dropTarget=0;fillColor=none;points=[[0,0.5],[1,0.5]];portConstraint=eastwest;fontSize=16;strokeColor=inherit;" vertex="1" parent="jF_JIcA0f8UIupgreUS_-34">
          <mxGeometry y="28" width="100" height="28" as="geometry" />
        </mxCell>
        <mxCell id="jF_JIcA0f8UIupgreUS_-40" value="" style="shape=partialRectangle;html=1;whiteSpace=wrap;connectable=0;fillColor=none;top=1;left=0;bottom=1;right=0;overflow=hidden;fontSize=12;strokeColor=inherit;" vertex="1" parent="jF_JIcA0f8UIupgreUS_-39">
          <mxGeometry width="34" height="28" as="geometry">
            <mxRectangle width="34" height="28" as="alternateBounds" />
          </mxGeometry>
        </mxCell>
        <mxCell id="jF_JIcA0f8UIupgreUS_-41" value="" style="shape=partialRectangle;html=1;whiteSpace=wrap;connectable=0;fillColor=none;top=1;left=0;bottom=1;right=0;overflow=hidden;fontSize=12;strokeColor=inherit;" vertex="1" parent="jF_JIcA0f8UIupgreUS_-39">
          <mxGeometry x="34" width="32" height="28" as="geometry">
            <mxRectangle width="32" height="28" as="alternateBounds" />
          </mxGeometry>
        </mxCell>
        <mxCell id="jF_JIcA0f8UIupgreUS_-42" value="" style="shape=partialRectangle;html=1;whiteSpace=wrap;connectable=0;fillColor=none;top=1;left=0;bottom=1;right=0;overflow=hidden;fontSize=12;strokeColor=inherit;" vertex="1" parent="jF_JIcA0f8UIupgreUS_-39">
          <mxGeometry x="66" width="34" height="28" as="geometry">
            <mxRectangle width="34" height="28" as="alternateBounds" />
          </mxGeometry>
        </mxCell>
        <mxCell id="jF_JIcA0f8UIupgreUS_-43" value="" style="shape=tableRow;horizontal=0;startSize=0;swimlaneHead=0;swimlaneBody=0;top=0;left=0;bottom=0;right=0;collapsible=0;dropTarget=0;fillColor=none;points=[[0,0.5],[1,0.5]];portConstraint=eastwest;fontSize=16;strokeColor=inherit;" vertex="1" parent="jF_JIcA0f8UIupgreUS_-34">
          <mxGeometry y="56" width="100" height="28" as="geometry" />
        </mxCell>
        <mxCell id="jF_JIcA0f8UIupgreUS_-44" value="30" style="shape=partialRectangle;html=1;whiteSpace=wrap;connectable=0;fillColor=none;top=1;left=1;bottom=1;right=1;overflow=hidden;fontSize=12;strokeColor=inherit;" vertex="1" parent="jF_JIcA0f8UIupgreUS_-43">
          <mxGeometry width="34" height="28" as="geometry">
            <mxRectangle width="34" height="28" as="alternateBounds" />
          </mxGeometry>
        </mxCell>
        <mxCell id="jF_JIcA0f8UIupgreUS_-45" value="0" style="shape=partialRectangle;html=1;whiteSpace=wrap;connectable=0;fillColor=none;top=1;left=1;bottom=1;right=1;overflow=hidden;fontSize=12;strokeColor=inherit;" vertex="1" parent="jF_JIcA0f8UIupgreUS_-43">
          <mxGeometry x="34" width="32" height="28" as="geometry">
            <mxRectangle width="32" height="28" as="alternateBounds" />
          </mxGeometry>
        </mxCell>
        <mxCell id="jF_JIcA0f8UIupgreUS_-46" value="30" style="shape=partialRectangle;html=1;whiteSpace=wrap;connectable=0;fillColor=none;top=1;left=1;bottom=1;right=1;overflow=hidden;fontSize=12;strokeColor=inherit;" vertex="1" parent="jF_JIcA0f8UIupgreUS_-43">
          <mxGeometry x="66" width="34" height="28" as="geometry">
            <mxRectangle width="34" height="28" as="alternateBounds" />
          </mxGeometry>
        </mxCell>
        <mxCell id="jF_JIcA0f8UIupgreUS_-73" style="edgeStyle=orthogonalEdgeStyle;rounded=0;orthogonalLoop=1;jettySize=auto;html=1;" edge="1" parent="1" source="jF_JIcA0f8UIupgreUS_-12" target="jF_JIcA0f8UIupgreUS_-39">
          <mxGeometry relative="1" as="geometry" />
        </mxCell>
        <mxCell id="jF_JIcA0f8UIupgreUS_-126" value="" style="shape=table;html=1;whiteSpace=wrap;startSize=0;container=1;collapsible=0;childLayout=tableLayout;columnLines=0;rowLines=0;fontSize=16;strokeColor=default;" vertex="1" parent="1">
          <mxGeometry x="360" y="372" width="100" height="84" as="geometry" />
        </mxCell>
        <mxCell id="jF_JIcA0f8UIupgreUS_-127" value="" style="shape=tableRow;horizontal=0;startSize=0;swimlaneHead=0;swimlaneBody=0;top=0;left=0;bottom=0;right=0;collapsible=0;dropTarget=0;fillColor=none;points=[[0,0.5],[1,0.5]];portConstraint=eastwest;fontSize=16;strokeColor=inherit;" vertex="1" parent="jF_JIcA0f8UIupgreUS_-126">
          <mxGeometry width="100" height="28" as="geometry" />
        </mxCell>
        <mxCell id="jF_JIcA0f8UIupgreUS_-128" value="30" style="shape=partialRectangle;html=1;whiteSpace=wrap;connectable=0;fillColor=none;top=1;left=1;bottom=1;right=1;overflow=hidden;fontSize=12;strokeColor=inherit;" vertex="1" parent="jF_JIcA0f8UIupgreUS_-127">
          <mxGeometry width="34" height="28" as="geometry">
            <mxRectangle width="34" height="28" as="alternateBounds" />
          </mxGeometry>
        </mxCell>
        <mxCell id="jF_JIcA0f8UIupgreUS_-129" value="59" style="shape=partialRectangle;html=1;whiteSpace=wrap;connectable=0;fillColor=none;top=1;left=1;bottom=1;right=1;overflow=hidden;fontSize=12;strokeColor=inherit;" vertex="1" parent="jF_JIcA0f8UIupgreUS_-127">
          <mxGeometry x="34" width="32" height="28" as="geometry">
            <mxRectangle width="32" height="28" as="alternateBounds" />
          </mxGeometry>
        </mxCell>
        <mxCell id="jF_JIcA0f8UIupgreUS_-130" value="30" style="shape=partialRectangle;html=1;whiteSpace=wrap;connectable=0;fillColor=none;top=1;left=1;bottom=1;right=1;overflow=hidden;fontSize=12;strokeColor=inherit;" vertex="1" parent="jF_JIcA0f8UIupgreUS_-127">
          <mxGeometry x="66" width="34" height="28" as="geometry">
            <mxRectangle width="34" height="28" as="alternateBounds" />
          </mxGeometry>
        </mxCell>
        <mxCell id="jF_JIcA0f8UIupgreUS_-131" value="" style="shape=tableRow;horizontal=0;startSize=0;swimlaneHead=0;swimlaneBody=0;top=0;left=0;bottom=0;right=0;collapsible=0;dropTarget=0;fillColor=none;points=[[0,0.5],[1,0.5]];portConstraint=eastwest;fontSize=16;strokeColor=inherit;" vertex="1" parent="jF_JIcA0f8UIupgreUS_-126">
          <mxGeometry y="28" width="100" height="28" as="geometry" />
        </mxCell>
        <mxCell id="jF_JIcA0f8UIupgreUS_-132" value="" style="shape=partialRectangle;html=1;whiteSpace=wrap;connectable=0;fillColor=none;top=1;left=0;bottom=1;right=0;overflow=hidden;fontSize=12;strokeColor=inherit;" vertex="1" parent="jF_JIcA0f8UIupgreUS_-131">
          <mxGeometry width="34" height="28" as="geometry">
            <mxRectangle width="34" height="28" as="alternateBounds" />
          </mxGeometry>
        </mxCell>
        <mxCell id="jF_JIcA0f8UIupgreUS_-133" value="" style="shape=partialRectangle;html=1;whiteSpace=wrap;connectable=0;fillColor=none;top=1;left=0;bottom=1;right=0;overflow=hidden;fontSize=12;strokeColor=inherit;" vertex="1" parent="jF_JIcA0f8UIupgreUS_-131">
          <mxGeometry x="34" width="32" height="28" as="geometry">
            <mxRectangle width="32" height="28" as="alternateBounds" />
          </mxGeometry>
        </mxCell>
        <mxCell id="jF_JIcA0f8UIupgreUS_-134" value="" style="shape=partialRectangle;html=1;whiteSpace=wrap;connectable=0;fillColor=none;top=1;left=0;bottom=1;right=0;overflow=hidden;fontSize=12;strokeColor=inherit;" vertex="1" parent="jF_JIcA0f8UIupgreUS_-131">
          <mxGeometry x="66" width="34" height="28" as="geometry">
            <mxRectangle width="34" height="28" as="alternateBounds" />
          </mxGeometry>
        </mxCell>
        <mxCell id="jF_JIcA0f8UIupgreUS_-135" value="" style="shape=tableRow;horizontal=0;startSize=0;swimlaneHead=0;swimlaneBody=0;top=0;left=0;bottom=0;right=0;collapsible=0;dropTarget=0;fillColor=none;points=[[0,0.5],[1,0.5]];portConstraint=eastwest;fontSize=16;strokeColor=inherit;" vertex="1" parent="jF_JIcA0f8UIupgreUS_-126">
          <mxGeometry y="56" width="100" height="28" as="geometry" />
        </mxCell>
        <mxCell id="jF_JIcA0f8UIupgreUS_-136" value="30" style="shape=partialRectangle;html=1;whiteSpace=wrap;connectable=0;fillColor=none;top=1;left=1;bottom=1;right=1;overflow=hidden;fontSize=12;strokeColor=inherit;" vertex="1" parent="jF_JIcA0f8UIupgreUS_-135">
          <mxGeometry width="34" height="28" as="geometry">
            <mxRectangle width="34" height="28" as="alternateBounds" />
          </mxGeometry>
        </mxCell>
        <mxCell id="jF_JIcA0f8UIupgreUS_-137" value="0" style="shape=partialRectangle;html=1;whiteSpace=wrap;connectable=0;fillColor=none;top=1;left=1;bottom=1;right=1;overflow=hidden;fontSize=12;strokeColor=inherit;" vertex="1" parent="jF_JIcA0f8UIupgreUS_-135">
          <mxGeometry x="34" width="32" height="28" as="geometry">
            <mxRectangle width="32" height="28" as="alternateBounds" />
          </mxGeometry>
        </mxCell>
        <mxCell id="jF_JIcA0f8UIupgreUS_-138" value="30" style="shape=partialRectangle;html=1;whiteSpace=wrap;connectable=0;fillColor=none;top=1;left=1;bottom=1;right=1;overflow=hidden;fontSize=12;strokeColor=inherit;" vertex="1" parent="jF_JIcA0f8UIupgreUS_-135">
          <mxGeometry x="66" width="34" height="28" as="geometry">
            <mxRectangle width="34" height="28" as="alternateBounds" />
          </mxGeometry>
        </mxCell>
        <mxCell id="jF_JIcA0f8UIupgreUS_-139" value="" style="shape=table;html=1;whiteSpace=wrap;startSize=0;container=1;collapsible=0;childLayout=tableLayout;columnLines=0;rowLines=0;fontSize=16;strokeColor=default;" vertex="1" parent="1">
          <mxGeometry x="490" y="320" width="100" height="84" as="geometry" />
        </mxCell>
        <mxCell id="jF_JIcA0f8UIupgreUS_-140" value="" style="shape=tableRow;horizontal=0;startSize=0;swimlaneHead=0;swimlaneBody=0;top=0;left=0;bottom=0;right=0;collapsible=0;dropTarget=0;fillColor=none;points=[[0,0.5],[1,0.5]];portConstraint=eastwest;fontSize=16;strokeColor=inherit;" vertex="1" parent="jF_JIcA0f8UIupgreUS_-139">
          <mxGeometry width="100" height="28" as="geometry" />
        </mxCell>
        <mxCell id="jF_JIcA0f8UIupgreUS_-141" value="30" style="shape=partialRectangle;html=1;whiteSpace=wrap;connectable=0;fillColor=none;top=1;left=1;bottom=1;right=1;overflow=hidden;fontSize=12;strokeColor=inherit;" vertex="1" parent="jF_JIcA0f8UIupgreUS_-140">
          <mxGeometry width="34" height="28" as="geometry">
            <mxRectangle width="34" height="28" as="alternateBounds" />
          </mxGeometry>
        </mxCell>
        <mxCell id="jF_JIcA0f8UIupgreUS_-142" value="59" style="shape=partialRectangle;html=1;whiteSpace=wrap;connectable=0;fillColor=none;top=1;left=1;bottom=1;right=1;overflow=hidden;fontSize=12;strokeColor=inherit;" vertex="1" parent="jF_JIcA0f8UIupgreUS_-140">
          <mxGeometry x="34" width="32" height="28" as="geometry">
            <mxRectangle width="32" height="28" as="alternateBounds" />
          </mxGeometry>
        </mxCell>
        <mxCell id="jF_JIcA0f8UIupgreUS_-143" value="30" style="shape=partialRectangle;html=1;whiteSpace=wrap;connectable=0;fillColor=none;top=1;left=1;bottom=1;right=1;overflow=hidden;fontSize=12;strokeColor=inherit;" vertex="1" parent="jF_JIcA0f8UIupgreUS_-140">
          <mxGeometry x="66" width="34" height="28" as="geometry">
            <mxRectangle width="34" height="28" as="alternateBounds" />
          </mxGeometry>
        </mxCell>
        <mxCell id="jF_JIcA0f8UIupgreUS_-144" value="" style="shape=tableRow;horizontal=0;startSize=0;swimlaneHead=0;swimlaneBody=0;top=0;left=0;bottom=0;right=0;collapsible=0;dropTarget=0;fillColor=none;points=[[0,0.5],[1,0.5]];portConstraint=eastwest;fontSize=16;strokeColor=inherit;" vertex="1" parent="jF_JIcA0f8UIupgreUS_-139">
          <mxGeometry y="28" width="100" height="28" as="geometry" />
        </mxCell>
        <mxCell id="jF_JIcA0f8UIupgreUS_-145" value="" style="shape=partialRectangle;html=1;whiteSpace=wrap;connectable=0;fillColor=none;top=1;left=0;bottom=1;right=0;overflow=hidden;fontSize=12;strokeColor=inherit;" vertex="1" parent="jF_JIcA0f8UIupgreUS_-144">
          <mxGeometry width="34" height="28" as="geometry">
            <mxRectangle width="34" height="28" as="alternateBounds" />
          </mxGeometry>
        </mxCell>
        <mxCell id="jF_JIcA0f8UIupgreUS_-146" value="" style="shape=partialRectangle;html=1;whiteSpace=wrap;connectable=0;fillColor=none;top=1;left=0;bottom=1;right=0;overflow=hidden;fontSize=12;strokeColor=inherit;" vertex="1" parent="jF_JIcA0f8UIupgreUS_-144">
          <mxGeometry x="34" width="32" height="28" as="geometry">
            <mxRectangle width="32" height="28" as="alternateBounds" />
          </mxGeometry>
        </mxCell>
        <mxCell id="jF_JIcA0f8UIupgreUS_-147" value="" style="shape=partialRectangle;html=1;whiteSpace=wrap;connectable=0;fillColor=none;top=1;left=0;bottom=1;right=0;overflow=hidden;fontSize=12;strokeColor=inherit;" vertex="1" parent="jF_JIcA0f8UIupgreUS_-144">
          <mxGeometry x="66" width="34" height="28" as="geometry">
            <mxRectangle width="34" height="28" as="alternateBounds" />
          </mxGeometry>
        </mxCell>
        <mxCell id="jF_JIcA0f8UIupgreUS_-148" value="" style="shape=tableRow;horizontal=0;startSize=0;swimlaneHead=0;swimlaneBody=0;top=0;left=0;bottom=0;right=0;collapsible=0;dropTarget=0;fillColor=none;points=[[0,0.5],[1,0.5]];portConstraint=eastwest;fontSize=16;strokeColor=inherit;" vertex="1" parent="jF_JIcA0f8UIupgreUS_-139">
          <mxGeometry y="56" width="100" height="28" as="geometry" />
        </mxCell>
        <mxCell id="jF_JIcA0f8UIupgreUS_-149" value="30" style="shape=partialRectangle;html=1;whiteSpace=wrap;connectable=0;fillColor=none;top=1;left=1;bottom=1;right=1;overflow=hidden;fontSize=12;strokeColor=inherit;" vertex="1" parent="jF_JIcA0f8UIupgreUS_-148">
          <mxGeometry width="34" height="28" as="geometry">
            <mxRectangle width="34" height="28" as="alternateBounds" />
          </mxGeometry>
        </mxCell>
        <mxCell id="jF_JIcA0f8UIupgreUS_-150" value="0" style="shape=partialRectangle;html=1;whiteSpace=wrap;connectable=0;fillColor=none;top=1;left=1;bottom=1;right=1;overflow=hidden;fontSize=12;strokeColor=inherit;" vertex="1" parent="jF_JIcA0f8UIupgreUS_-148">
          <mxGeometry x="34" width="32" height="28" as="geometry">
            <mxRectangle width="32" height="28" as="alternateBounds" />
          </mxGeometry>
        </mxCell>
        <mxCell id="jF_JIcA0f8UIupgreUS_-151" value="30" style="shape=partialRectangle;html=1;whiteSpace=wrap;connectable=0;fillColor=none;top=1;left=1;bottom=1;right=1;overflow=hidden;fontSize=12;strokeColor=inherit;" vertex="1" parent="jF_JIcA0f8UIupgreUS_-148">
          <mxGeometry x="66" width="34" height="28" as="geometry">
            <mxRectangle width="34" height="28" as="alternateBounds" />
          </mxGeometry>
        </mxCell>
        <mxCell id="jF_JIcA0f8UIupgreUS_-152" value="" style="shape=table;html=1;whiteSpace=wrap;startSize=0;container=1;collapsible=0;childLayout=tableLayout;columnLines=0;rowLines=0;fontSize=16;strokeColor=default;" vertex="1" parent="1">
          <mxGeometry x="490" y="430" width="100" height="84" as="geometry" />
        </mxCell>
        <mxCell id="jF_JIcA0f8UIupgreUS_-153" value="" style="shape=tableRow;horizontal=0;startSize=0;swimlaneHead=0;swimlaneBody=0;top=0;left=0;bottom=0;right=0;collapsible=0;dropTarget=0;fillColor=none;points=[[0,0.5],[1,0.5]];portConstraint=eastwest;fontSize=16;strokeColor=inherit;" vertex="1" parent="jF_JIcA0f8UIupgreUS_-152">
          <mxGeometry width="100" height="28" as="geometry" />
        </mxCell>
        <mxCell id="jF_JIcA0f8UIupgreUS_-154" value="30" style="shape=partialRectangle;html=1;whiteSpace=wrap;connectable=0;fillColor=none;top=1;left=1;bottom=1;right=1;overflow=hidden;fontSize=12;strokeColor=inherit;" vertex="1" parent="jF_JIcA0f8UIupgreUS_-153">
          <mxGeometry width="34" height="28" as="geometry">
            <mxRectangle width="34" height="28" as="alternateBounds" />
          </mxGeometry>
        </mxCell>
        <mxCell id="jF_JIcA0f8UIupgreUS_-155" value="59" style="shape=partialRectangle;html=1;whiteSpace=wrap;connectable=0;fillColor=none;top=1;left=1;bottom=1;right=1;overflow=hidden;fontSize=12;strokeColor=inherit;" vertex="1" parent="jF_JIcA0f8UIupgreUS_-153">
          <mxGeometry x="34" width="32" height="28" as="geometry">
            <mxRectangle width="32" height="28" as="alternateBounds" />
          </mxGeometry>
        </mxCell>
        <mxCell id="jF_JIcA0f8UIupgreUS_-156" value="30" style="shape=partialRectangle;html=1;whiteSpace=wrap;connectable=0;fillColor=none;top=1;left=1;bottom=1;right=1;overflow=hidden;fontSize=12;strokeColor=inherit;" vertex="1" parent="jF_JIcA0f8UIupgreUS_-153">
          <mxGeometry x="66" width="34" height="28" as="geometry">
            <mxRectangle width="34" height="28" as="alternateBounds" />
          </mxGeometry>
        </mxCell>
        <mxCell id="jF_JIcA0f8UIupgreUS_-157" value="" style="shape=tableRow;horizontal=0;startSize=0;swimlaneHead=0;swimlaneBody=0;top=0;left=0;bottom=0;right=0;collapsible=0;dropTarget=0;fillColor=none;points=[[0,0.5],[1,0.5]];portConstraint=eastwest;fontSize=16;strokeColor=inherit;" vertex="1" parent="jF_JIcA0f8UIupgreUS_-152">
          <mxGeometry y="28" width="100" height="28" as="geometry" />
        </mxCell>
        <mxCell id="jF_JIcA0f8UIupgreUS_-158" value="" style="shape=partialRectangle;html=1;whiteSpace=wrap;connectable=0;fillColor=none;top=1;left=0;bottom=1;right=0;overflow=hidden;fontSize=12;strokeColor=inherit;" vertex="1" parent="jF_JIcA0f8UIupgreUS_-157">
          <mxGeometry width="34" height="28" as="geometry">
            <mxRectangle width="34" height="28" as="alternateBounds" />
          </mxGeometry>
        </mxCell>
        <mxCell id="jF_JIcA0f8UIupgreUS_-159" value="" style="shape=partialRectangle;html=1;whiteSpace=wrap;connectable=0;fillColor=none;top=1;left=0;bottom=1;right=0;overflow=hidden;fontSize=12;strokeColor=inherit;" vertex="1" parent="jF_JIcA0f8UIupgreUS_-157">
          <mxGeometry x="34" width="32" height="28" as="geometry">
            <mxRectangle width="32" height="28" as="alternateBounds" />
          </mxGeometry>
        </mxCell>
        <mxCell id="jF_JIcA0f8UIupgreUS_-160" value="" style="shape=partialRectangle;html=1;whiteSpace=wrap;connectable=0;fillColor=none;top=1;left=0;bottom=1;right=0;overflow=hidden;fontSize=12;strokeColor=inherit;" vertex="1" parent="jF_JIcA0f8UIupgreUS_-157">
          <mxGeometry x="66" width="34" height="28" as="geometry">
            <mxRectangle width="34" height="28" as="alternateBounds" />
          </mxGeometry>
        </mxCell>
        <mxCell id="jF_JIcA0f8UIupgreUS_-161" value="" style="shape=tableRow;horizontal=0;startSize=0;swimlaneHead=0;swimlaneBody=0;top=0;left=0;bottom=0;right=0;collapsible=0;dropTarget=0;fillColor=none;points=[[0,0.5],[1,0.5]];portConstraint=eastwest;fontSize=16;strokeColor=inherit;" vertex="1" parent="jF_JIcA0f8UIupgreUS_-152">
          <mxGeometry y="56" width="100" height="28" as="geometry" />
        </mxCell>
        <mxCell id="jF_JIcA0f8UIupgreUS_-162" value="30" style="shape=partialRectangle;html=1;whiteSpace=wrap;connectable=0;fillColor=none;top=1;left=1;bottom=1;right=1;overflow=hidden;fontSize=12;strokeColor=inherit;" vertex="1" parent="jF_JIcA0f8UIupgreUS_-161">
          <mxGeometry width="34" height="28" as="geometry">
            <mxRectangle width="34" height="28" as="alternateBounds" />
          </mxGeometry>
        </mxCell>
        <mxCell id="jF_JIcA0f8UIupgreUS_-163" value="0" style="shape=partialRectangle;html=1;whiteSpace=wrap;connectable=0;fillColor=none;top=1;left=1;bottom=1;right=1;overflow=hidden;fontSize=12;strokeColor=inherit;" vertex="1" parent="jF_JIcA0f8UIupgreUS_-161">
          <mxGeometry x="34" width="32" height="28" as="geometry">
            <mxRectangle width="32" height="28" as="alternateBounds" />
          </mxGeometry>
        </mxCell>
        <mxCell id="jF_JIcA0f8UIupgreUS_-164" value="30" style="shape=partialRectangle;html=1;whiteSpace=wrap;connectable=0;fillColor=none;top=1;left=1;bottom=1;right=1;overflow=hidden;fontSize=12;strokeColor=inherit;" vertex="1" parent="jF_JIcA0f8UIupgreUS_-161">
          <mxGeometry x="66" width="34" height="28" as="geometry">
            <mxRectangle width="34" height="28" as="alternateBounds" />
          </mxGeometry>
        </mxCell>
        <mxCell id="jF_JIcA0f8UIupgreUS_-165" value="" style="shape=table;html=1;whiteSpace=wrap;startSize=0;container=1;collapsible=0;childLayout=tableLayout;columnLines=0;rowLines=0;fontSize=16;strokeColor=default;" vertex="1" parent="1">
          <mxGeometry x="620" y="372" width="100" height="84" as="geometry" />
        </mxCell>
        <mxCell id="jF_JIcA0f8UIupgreUS_-166" value="" style="shape=tableRow;horizontal=0;startSize=0;swimlaneHead=0;swimlaneBody=0;top=0;left=0;bottom=0;right=0;collapsible=0;dropTarget=0;fillColor=none;points=[[0,0.5],[1,0.5]];portConstraint=eastwest;fontSize=16;strokeColor=inherit;" vertex="1" parent="jF_JIcA0f8UIupgreUS_-165">
          <mxGeometry width="100" height="28" as="geometry" />
        </mxCell>
        <mxCell id="jF_JIcA0f8UIupgreUS_-167" value="30" style="shape=partialRectangle;html=1;whiteSpace=wrap;connectable=0;fillColor=none;top=1;left=1;bottom=1;right=1;overflow=hidden;fontSize=12;strokeColor=inherit;" vertex="1" parent="jF_JIcA0f8UIupgreUS_-166">
          <mxGeometry width="34" height="28" as="geometry">
            <mxRectangle width="34" height="28" as="alternateBounds" />
          </mxGeometry>
        </mxCell>
        <mxCell id="jF_JIcA0f8UIupgreUS_-168" value="59" style="shape=partialRectangle;html=1;whiteSpace=wrap;connectable=0;fillColor=none;top=1;left=1;bottom=1;right=1;overflow=hidden;fontSize=12;strokeColor=inherit;" vertex="1" parent="jF_JIcA0f8UIupgreUS_-166">
          <mxGeometry x="34" width="32" height="28" as="geometry">
            <mxRectangle width="32" height="28" as="alternateBounds" />
          </mxGeometry>
        </mxCell>
        <mxCell id="jF_JIcA0f8UIupgreUS_-169" value="30" style="shape=partialRectangle;html=1;whiteSpace=wrap;connectable=0;fillColor=none;top=1;left=1;bottom=1;right=1;overflow=hidden;fontSize=12;strokeColor=inherit;" vertex="1" parent="jF_JIcA0f8UIupgreUS_-166">
          <mxGeometry x="66" width="34" height="28" as="geometry">
            <mxRectangle width="34" height="28" as="alternateBounds" />
          </mxGeometry>
        </mxCell>
        <mxCell id="jF_JIcA0f8UIupgreUS_-170" value="" style="shape=tableRow;horizontal=0;startSize=0;swimlaneHead=0;swimlaneBody=0;top=0;left=0;bottom=0;right=0;collapsible=0;dropTarget=0;fillColor=none;points=[[0,0.5],[1,0.5]];portConstraint=eastwest;fontSize=16;strokeColor=inherit;" vertex="1" parent="jF_JIcA0f8UIupgreUS_-165">
          <mxGeometry y="28" width="100" height="28" as="geometry" />
        </mxCell>
        <mxCell id="jF_JIcA0f8UIupgreUS_-171" value="" style="shape=partialRectangle;html=1;whiteSpace=wrap;connectable=0;fillColor=none;top=1;left=0;bottom=1;right=0;overflow=hidden;fontSize=12;strokeColor=inherit;" vertex="1" parent="jF_JIcA0f8UIupgreUS_-170">
          <mxGeometry width="34" height="28" as="geometry">
            <mxRectangle width="34" height="28" as="alternateBounds" />
          </mxGeometry>
        </mxCell>
        <mxCell id="jF_JIcA0f8UIupgreUS_-172" value="" style="shape=partialRectangle;html=1;whiteSpace=wrap;connectable=0;fillColor=none;top=1;left=0;bottom=1;right=0;overflow=hidden;fontSize=12;strokeColor=inherit;" vertex="1" parent="jF_JIcA0f8UIupgreUS_-170">
          <mxGeometry x="34" width="32" height="28" as="geometry">
            <mxRectangle width="32" height="28" as="alternateBounds" />
          </mxGeometry>
        </mxCell>
        <mxCell id="jF_JIcA0f8UIupgreUS_-173" value="" style="shape=partialRectangle;html=1;whiteSpace=wrap;connectable=0;fillColor=none;top=1;left=0;bottom=1;right=0;overflow=hidden;fontSize=12;strokeColor=inherit;" vertex="1" parent="jF_JIcA0f8UIupgreUS_-170">
          <mxGeometry x="66" width="34" height="28" as="geometry">
            <mxRectangle width="34" height="28" as="alternateBounds" />
          </mxGeometry>
        </mxCell>
        <mxCell id="jF_JIcA0f8UIupgreUS_-174" value="" style="shape=tableRow;horizontal=0;startSize=0;swimlaneHead=0;swimlaneBody=0;top=0;left=0;bottom=0;right=0;collapsible=0;dropTarget=0;fillColor=none;points=[[0,0.5],[1,0.5]];portConstraint=eastwest;fontSize=16;strokeColor=inherit;" vertex="1" parent="jF_JIcA0f8UIupgreUS_-165">
          <mxGeometry y="56" width="100" height="28" as="geometry" />
        </mxCell>
        <mxCell id="jF_JIcA0f8UIupgreUS_-175" value="30" style="shape=partialRectangle;html=1;whiteSpace=wrap;connectable=0;fillColor=none;top=1;left=1;bottom=1;right=1;overflow=hidden;fontSize=12;strokeColor=inherit;" vertex="1" parent="jF_JIcA0f8UIupgreUS_-174">
          <mxGeometry width="34" height="28" as="geometry">
            <mxRectangle width="34" height="28" as="alternateBounds" />
          </mxGeometry>
        </mxCell>
        <mxCell id="jF_JIcA0f8UIupgreUS_-176" value="0" style="shape=partialRectangle;html=1;whiteSpace=wrap;connectable=0;fillColor=none;top=1;left=1;bottom=1;right=1;overflow=hidden;fontSize=12;strokeColor=inherit;" vertex="1" parent="jF_JIcA0f8UIupgreUS_-174">
          <mxGeometry x="34" width="32" height="28" as="geometry">
            <mxRectangle width="32" height="28" as="alternateBounds" />
          </mxGeometry>
        </mxCell>
        <mxCell id="jF_JIcA0f8UIupgreUS_-177" value="30" style="shape=partialRectangle;html=1;whiteSpace=wrap;connectable=0;fillColor=none;top=1;left=1;bottom=1;right=1;overflow=hidden;fontSize=12;strokeColor=inherit;" vertex="1" parent="jF_JIcA0f8UIupgreUS_-174">
          <mxGeometry x="66" width="34" height="28" as="geometry">
            <mxRectangle width="34" height="28" as="alternateBounds" />
          </mxGeometry>
        </mxCell>
        <mxCell id="jF_JIcA0f8UIupgreUS_-178" value="" style="shape=table;html=1;whiteSpace=wrap;startSize=0;container=1;collapsible=0;childLayout=tableLayout;columnLines=0;rowLines=0;fontSize=16;strokeColor=default;" vertex="1" parent="1">
          <mxGeometry x="740" y="372" width="100" height="84" as="geometry" />
        </mxCell>
        <mxCell id="jF_JIcA0f8UIupgreUS_-179" value="" style="shape=tableRow;horizontal=0;startSize=0;swimlaneHead=0;swimlaneBody=0;top=0;left=0;bottom=0;right=0;collapsible=0;dropTarget=0;fillColor=none;points=[[0,0.5],[1,0.5]];portConstraint=eastwest;fontSize=16;strokeColor=inherit;" vertex="1" parent="jF_JIcA0f8UIupgreUS_-178">
          <mxGeometry width="100" height="28" as="geometry" />
        </mxCell>
        <mxCell id="jF_JIcA0f8UIupgreUS_-180" value="30" style="shape=partialRectangle;html=1;whiteSpace=wrap;connectable=0;fillColor=none;top=1;left=1;bottom=1;right=1;overflow=hidden;fontSize=12;strokeColor=inherit;" vertex="1" parent="jF_JIcA0f8UIupgreUS_-179">
          <mxGeometry width="34" height="28" as="geometry">
            <mxRectangle width="34" height="28" as="alternateBounds" />
          </mxGeometry>
        </mxCell>
        <mxCell id="jF_JIcA0f8UIupgreUS_-181" value="59" style="shape=partialRectangle;html=1;whiteSpace=wrap;connectable=0;fillColor=none;top=1;left=1;bottom=1;right=1;overflow=hidden;fontSize=12;strokeColor=inherit;" vertex="1" parent="jF_JIcA0f8UIupgreUS_-179">
          <mxGeometry x="34" width="32" height="28" as="geometry">
            <mxRectangle width="32" height="28" as="alternateBounds" />
          </mxGeometry>
        </mxCell>
        <mxCell id="jF_JIcA0f8UIupgreUS_-182" value="30" style="shape=partialRectangle;html=1;whiteSpace=wrap;connectable=0;fillColor=none;top=1;left=1;bottom=1;right=1;overflow=hidden;fontSize=12;strokeColor=inherit;" vertex="1" parent="jF_JIcA0f8UIupgreUS_-179">
          <mxGeometry x="66" width="34" height="28" as="geometry">
            <mxRectangle width="34" height="28" as="alternateBounds" />
          </mxGeometry>
        </mxCell>
        <mxCell id="jF_JIcA0f8UIupgreUS_-183" value="" style="shape=tableRow;horizontal=0;startSize=0;swimlaneHead=0;swimlaneBody=0;top=0;left=0;bottom=0;right=0;collapsible=0;dropTarget=0;fillColor=none;points=[[0,0.5],[1,0.5]];portConstraint=eastwest;fontSize=16;strokeColor=inherit;" vertex="1" parent="jF_JIcA0f8UIupgreUS_-178">
          <mxGeometry y="28" width="100" height="28" as="geometry" />
        </mxCell>
        <mxCell id="jF_JIcA0f8UIupgreUS_-184" value="" style="shape=partialRectangle;html=1;whiteSpace=wrap;connectable=0;fillColor=none;top=1;left=0;bottom=1;right=0;overflow=hidden;fontSize=12;strokeColor=inherit;" vertex="1" parent="jF_JIcA0f8UIupgreUS_-183">
          <mxGeometry width="34" height="28" as="geometry">
            <mxRectangle width="34" height="28" as="alternateBounds" />
          </mxGeometry>
        </mxCell>
        <mxCell id="jF_JIcA0f8UIupgreUS_-185" value="" style="shape=partialRectangle;html=1;whiteSpace=wrap;connectable=0;fillColor=none;top=1;left=0;bottom=1;right=0;overflow=hidden;fontSize=12;strokeColor=inherit;" vertex="1" parent="jF_JIcA0f8UIupgreUS_-183">
          <mxGeometry x="34" width="32" height="28" as="geometry">
            <mxRectangle width="32" height="28" as="alternateBounds" />
          </mxGeometry>
        </mxCell>
        <mxCell id="jF_JIcA0f8UIupgreUS_-186" value="" style="shape=partialRectangle;html=1;whiteSpace=wrap;connectable=0;fillColor=none;top=1;left=0;bottom=1;right=0;overflow=hidden;fontSize=12;strokeColor=inherit;" vertex="1" parent="jF_JIcA0f8UIupgreUS_-183">
          <mxGeometry x="66" width="34" height="28" as="geometry">
            <mxRectangle width="34" height="28" as="alternateBounds" />
          </mxGeometry>
        </mxCell>
        <mxCell id="jF_JIcA0f8UIupgreUS_-187" value="" style="shape=tableRow;horizontal=0;startSize=0;swimlaneHead=0;swimlaneBody=0;top=0;left=0;bottom=0;right=0;collapsible=0;dropTarget=0;fillColor=none;points=[[0,0.5],[1,0.5]];portConstraint=eastwest;fontSize=16;strokeColor=inherit;" vertex="1" parent="jF_JIcA0f8UIupgreUS_-178">
          <mxGeometry y="56" width="100" height="28" as="geometry" />
        </mxCell>
        <mxCell id="jF_JIcA0f8UIupgreUS_-188" value="30" style="shape=partialRectangle;html=1;whiteSpace=wrap;connectable=0;fillColor=none;top=1;left=1;bottom=1;right=1;overflow=hidden;fontSize=12;strokeColor=inherit;" vertex="1" parent="jF_JIcA0f8UIupgreUS_-187">
          <mxGeometry width="34" height="28" as="geometry">
            <mxRectangle width="34" height="28" as="alternateBounds" />
          </mxGeometry>
        </mxCell>
        <mxCell id="jF_JIcA0f8UIupgreUS_-189" value="0" style="shape=partialRectangle;html=1;whiteSpace=wrap;connectable=0;fillColor=none;top=1;left=1;bottom=1;right=1;overflow=hidden;fontSize=12;strokeColor=inherit;" vertex="1" parent="jF_JIcA0f8UIupgreUS_-187">
          <mxGeometry x="34" width="32" height="28" as="geometry">
            <mxRectangle width="32" height="28" as="alternateBounds" />
          </mxGeometry>
        </mxCell>
        <mxCell id="jF_JIcA0f8UIupgreUS_-190" value="30" style="shape=partialRectangle;html=1;whiteSpace=wrap;connectable=0;fillColor=none;top=1;left=1;bottom=1;right=1;overflow=hidden;fontSize=12;strokeColor=inherit;" vertex="1" parent="jF_JIcA0f8UIupgreUS_-187">
          <mxGeometry x="66" width="34" height="28" as="geometry">
            <mxRectangle width="34" height="28" as="alternateBounds" />
          </mxGeometry>
        </mxCell>
        <mxCell id="jF_JIcA0f8UIupgreUS_-191" value="" style="shape=table;html=1;whiteSpace=wrap;startSize=0;container=1;collapsible=0;childLayout=tableLayout;columnLines=0;rowLines=0;fontSize=16;strokeColor=default;" vertex="1" parent="1">
          <mxGeometry x="860" y="372" width="100" height="84" as="geometry" />
        </mxCell>
        <mxCell id="jF_JIcA0f8UIupgreUS_-192" value="" style="shape=tableRow;horizontal=0;startSize=0;swimlaneHead=0;swimlaneBody=0;top=0;left=0;bottom=0;right=0;collapsible=0;dropTarget=0;fillColor=none;points=[[0,0.5],[1,0.5]];portConstraint=eastwest;fontSize=16;strokeColor=inherit;" vertex="1" parent="jF_JIcA0f8UIupgreUS_-191">
          <mxGeometry width="100" height="28" as="geometry" />
        </mxCell>
        <mxCell id="jF_JIcA0f8UIupgreUS_-193" value="30" style="shape=partialRectangle;html=1;whiteSpace=wrap;connectable=0;fillColor=none;top=1;left=1;bottom=1;right=1;overflow=hidden;fontSize=12;strokeColor=inherit;" vertex="1" parent="jF_JIcA0f8UIupgreUS_-192">
          <mxGeometry width="34" height="28" as="geometry">
            <mxRectangle width="34" height="28" as="alternateBounds" />
          </mxGeometry>
        </mxCell>
        <mxCell id="jF_JIcA0f8UIupgreUS_-194" value="59" style="shape=partialRectangle;html=1;whiteSpace=wrap;connectable=0;fillColor=none;top=1;left=1;bottom=1;right=1;overflow=hidden;fontSize=12;strokeColor=inherit;" vertex="1" parent="jF_JIcA0f8UIupgreUS_-192">
          <mxGeometry x="34" width="32" height="28" as="geometry">
            <mxRectangle width="32" height="28" as="alternateBounds" />
          </mxGeometry>
        </mxCell>
        <mxCell id="jF_JIcA0f8UIupgreUS_-195" value="30" style="shape=partialRectangle;html=1;whiteSpace=wrap;connectable=0;fillColor=none;top=1;left=1;bottom=1;right=1;overflow=hidden;fontSize=12;strokeColor=inherit;" vertex="1" parent="jF_JIcA0f8UIupgreUS_-192">
          <mxGeometry x="66" width="34" height="28" as="geometry">
            <mxRectangle width="34" height="28" as="alternateBounds" />
          </mxGeometry>
        </mxCell>
        <mxCell id="jF_JIcA0f8UIupgreUS_-196" value="" style="shape=tableRow;horizontal=0;startSize=0;swimlaneHead=0;swimlaneBody=0;top=0;left=0;bottom=0;right=0;collapsible=0;dropTarget=0;fillColor=none;points=[[0,0.5],[1,0.5]];portConstraint=eastwest;fontSize=16;strokeColor=inherit;" vertex="1" parent="jF_JIcA0f8UIupgreUS_-191">
          <mxGeometry y="28" width="100" height="28" as="geometry" />
        </mxCell>
        <mxCell id="jF_JIcA0f8UIupgreUS_-197" value="" style="shape=partialRectangle;html=1;whiteSpace=wrap;connectable=0;fillColor=none;top=1;left=0;bottom=1;right=0;overflow=hidden;fontSize=12;strokeColor=inherit;" vertex="1" parent="jF_JIcA0f8UIupgreUS_-196">
          <mxGeometry width="34" height="28" as="geometry">
            <mxRectangle width="34" height="28" as="alternateBounds" />
          </mxGeometry>
        </mxCell>
        <mxCell id="jF_JIcA0f8UIupgreUS_-198" value="" style="shape=partialRectangle;html=1;whiteSpace=wrap;connectable=0;fillColor=none;top=1;left=0;bottom=1;right=0;overflow=hidden;fontSize=12;strokeColor=inherit;" vertex="1" parent="jF_JIcA0f8UIupgreUS_-196">
          <mxGeometry x="34" width="32" height="28" as="geometry">
            <mxRectangle width="32" height="28" as="alternateBounds" />
          </mxGeometry>
        </mxCell>
        <mxCell id="jF_JIcA0f8UIupgreUS_-199" value="" style="shape=partialRectangle;html=1;whiteSpace=wrap;connectable=0;fillColor=none;top=1;left=0;bottom=1;right=0;overflow=hidden;fontSize=12;strokeColor=inherit;" vertex="1" parent="jF_JIcA0f8UIupgreUS_-196">
          <mxGeometry x="66" width="34" height="28" as="geometry">
            <mxRectangle width="34" height="28" as="alternateBounds" />
          </mxGeometry>
        </mxCell>
        <mxCell id="jF_JIcA0f8UIupgreUS_-200" value="" style="shape=tableRow;horizontal=0;startSize=0;swimlaneHead=0;swimlaneBody=0;top=0;left=0;bottom=0;right=0;collapsible=0;dropTarget=0;fillColor=none;points=[[0,0.5],[1,0.5]];portConstraint=eastwest;fontSize=16;strokeColor=inherit;" vertex="1" parent="jF_JIcA0f8UIupgreUS_-191">
          <mxGeometry y="56" width="100" height="28" as="geometry" />
        </mxCell>
        <mxCell id="jF_JIcA0f8UIupgreUS_-201" value="30" style="shape=partialRectangle;html=1;whiteSpace=wrap;connectable=0;fillColor=none;top=1;left=1;bottom=1;right=1;overflow=hidden;fontSize=12;strokeColor=inherit;" vertex="1" parent="jF_JIcA0f8UIupgreUS_-200">
          <mxGeometry width="34" height="28" as="geometry">
            <mxRectangle width="34" height="28" as="alternateBounds" />
          </mxGeometry>
        </mxCell>
        <mxCell id="jF_JIcA0f8UIupgreUS_-202" value="0" style="shape=partialRectangle;html=1;whiteSpace=wrap;connectable=0;fillColor=none;top=1;left=1;bottom=1;right=1;overflow=hidden;fontSize=12;strokeColor=inherit;" vertex="1" parent="jF_JIcA0f8UIupgreUS_-200">
          <mxGeometry x="34" width="32" height="28" as="geometry">
            <mxRectangle width="32" height="28" as="alternateBounds" />
          </mxGeometry>
        </mxCell>
        <mxCell id="jF_JIcA0f8UIupgreUS_-203" value="30" style="shape=partialRectangle;html=1;whiteSpace=wrap;connectable=0;fillColor=none;top=1;left=1;bottom=1;right=1;overflow=hidden;fontSize=12;strokeColor=inherit;" vertex="1" parent="jF_JIcA0f8UIupgreUS_-200">
          <mxGeometry x="66" width="34" height="28" as="geometry">
            <mxRectangle width="34" height="28" as="alternateBounds" />
          </mxGeometry>
        </mxCell>
        <mxCell id="jF_JIcA0f8UIupgreUS_-204" value="&lt;h2&gt;end&lt;/h2&gt;" style="strokeWidth=2;html=1;shape=mxgraph.flowchart.start_2;whiteSpace=wrap;" vertex="1" parent="1">
          <mxGeometry x="980" y="381" width="60" height="66" as="geometry" />
        </mxCell>
        <mxCell id="jF_JIcA0f8UIupgreUS_-205" style="edgeStyle=orthogonalEdgeStyle;rounded=0;orthogonalLoop=1;jettySize=auto;html=1;" edge="1" parent="1" source="jF_JIcA0f8UIupgreUS_-39" target="jF_JIcA0f8UIupgreUS_-131">
          <mxGeometry relative="1" as="geometry" />
        </mxCell>
        <mxCell id="jF_JIcA0f8UIupgreUS_-206" style="edgeStyle=orthogonalEdgeStyle;rounded=0;orthogonalLoop=1;jettySize=auto;html=1;entryX=0;entryY=0.5;entryDx=0;entryDy=0;exitX=1;exitY=0.5;exitDx=0;exitDy=0;" edge="1" parent="1" source="jF_JIcA0f8UIupgreUS_-144" target="jF_JIcA0f8UIupgreUS_-170">
          <mxGeometry relative="1" as="geometry">
            <mxPoint x="600" y="380" as="sourcePoint" />
            <Array as="points">
              <mxPoint x="600" y="362" />
              <mxPoint x="600" y="414" />
            </Array>
          </mxGeometry>
        </mxCell>
        <mxCell id="jF_JIcA0f8UIupgreUS_-207" style="edgeStyle=orthogonalEdgeStyle;rounded=0;orthogonalLoop=1;jettySize=auto;html=1;entryX=0;entryY=0.5;entryDx=0;entryDy=0;" edge="1" parent="1" source="jF_JIcA0f8UIupgreUS_-157" target="jF_JIcA0f8UIupgreUS_-170">
          <mxGeometry relative="1" as="geometry">
            <Array as="points">
              <mxPoint x="600" y="472" />
              <mxPoint x="600" y="414" />
            </Array>
          </mxGeometry>
        </mxCell>
        <mxCell id="jF_JIcA0f8UIupgreUS_-208" style="edgeStyle=orthogonalEdgeStyle;rounded=0;orthogonalLoop=1;jettySize=auto;html=1;entryX=0.023;entryY=0.469;entryDx=0;entryDy=0;entryPerimeter=0;" edge="1" parent="1" source="jF_JIcA0f8UIupgreUS_-131" target="jF_JIcA0f8UIupgreUS_-144">
          <mxGeometry relative="1" as="geometry">
            <Array as="points">
              <mxPoint x="470" y="414" />
              <mxPoint x="470" y="361" />
            </Array>
          </mxGeometry>
        </mxCell>
        <mxCell id="jF_JIcA0f8UIupgreUS_-209" style="edgeStyle=orthogonalEdgeStyle;rounded=0;orthogonalLoop=1;jettySize=auto;html=1;entryX=0;entryY=0.5;entryDx=0;entryDy=0;" edge="1" parent="1" source="jF_JIcA0f8UIupgreUS_-131" target="jF_JIcA0f8UIupgreUS_-157">
          <mxGeometry relative="1" as="geometry">
            <Array as="points">
              <mxPoint x="470" y="414" />
              <mxPoint x="470" y="472" />
            </Array>
          </mxGeometry>
        </mxCell>
        <mxCell id="jF_JIcA0f8UIupgreUS_-210" style="edgeStyle=orthogonalEdgeStyle;rounded=0;orthogonalLoop=1;jettySize=auto;html=1;" edge="1" parent="1" source="jF_JIcA0f8UIupgreUS_-170" target="jF_JIcA0f8UIupgreUS_-183">
          <mxGeometry relative="1" as="geometry" />
        </mxCell>
        <mxCell id="jF_JIcA0f8UIupgreUS_-211" style="edgeStyle=orthogonalEdgeStyle;rounded=0;orthogonalLoop=1;jettySize=auto;html=1;" edge="1" parent="1" source="jF_JIcA0f8UIupgreUS_-183" target="jF_JIcA0f8UIupgreUS_-196">
          <mxGeometry relative="1" as="geometry" />
        </mxCell>
        <mxCell id="jF_JIcA0f8UIupgreUS_-212" style="edgeStyle=orthogonalEdgeStyle;rounded=0;orthogonalLoop=1;jettySize=auto;html=1;" edge="1" parent="1" source="jF_JIcA0f8UIupgreUS_-196" target="jF_JIcA0f8UIupgreUS_-204">
          <mxGeometry relative="1" as="geometry" />
        </mxCell>
        <mxCell id="jF_JIcA0f8UIupgreUS_-213" value="Text" style="text;html=1;strokeColor=none;fillColor=none;align=center;verticalAlign=middle;whiteSpace=wrap;rounded=0;" vertex="1" parent="1">
          <mxGeometry x="260" y="330" width="60" height="30" as="geometry" />
        </mxCell>
        <mxCell id="jF_JIcA0f8UIupgreUS_-214" value="Text" style="text;html=1;strokeColor=none;fillColor=none;align=center;verticalAlign=middle;whiteSpace=wrap;rounded=0;" vertex="1" parent="1">
          <mxGeometry x="140" y="330" width="60" height="30" as="geometry" />
        </mxCell>
        <mxCell id="jF_JIcA0f8UIupgreUS_-215" value="Text" style="text;html=1;strokeColor=none;fillColor=none;align=center;verticalAlign=middle;whiteSpace=wrap;rounded=0;" vertex="1" parent="1">
          <mxGeometry x="640" y="330" width="60" height="30" as="geometry" />
        </mxCell>
        <mxCell id="jF_JIcA0f8UIupgreUS_-216" value="Text" style="text;html=1;strokeColor=none;fillColor=none;align=center;verticalAlign=middle;whiteSpace=wrap;rounded=0;" vertex="1" parent="1">
          <mxGeometry x="510" y="530" width="60" height="30" as="geometry" />
        </mxCell>
        <mxCell id="jF_JIcA0f8UIupgreUS_-217" value="Text" style="text;html=1;strokeColor=none;fillColor=none;align=center;verticalAlign=middle;whiteSpace=wrap;rounded=0;" vertex="1" parent="1">
          <mxGeometry x="510" y="280" width="60" height="30" as="geometry" />
        </mxCell>
        <mxCell id="jF_JIcA0f8UIupgreUS_-218" value="Text" style="text;html=1;strokeColor=none;fillColor=none;align=center;verticalAlign=middle;whiteSpace=wrap;rounded=0;" vertex="1" parent="1">
          <mxGeometry x="380" y="330" width="60" height="30" as="geometry" />
        </mxCell>
        <mxCell id="jF_JIcA0f8UIupgreUS_-220" value="Text" style="text;html=1;strokeColor=none;fillColor=none;align=center;verticalAlign=middle;whiteSpace=wrap;rounded=0;" vertex="1" parent="1">
          <mxGeometry x="760" y="330" width="60" height="30" as="geometry" />
        </mxCell>
        <mxCell id="jF_JIcA0f8UIupgreUS_-221" value="Text" style="text;html=1;strokeColor=none;fillColor=none;align=center;verticalAlign=middle;whiteSpace=wrap;rounded=0;" vertex="1" parent="1">
          <mxGeometry x="880" y="330" width="60" height="30" as="geometry" />
        </mxCell>
      </root>
    </mxGraphModel>
  </diagram>
</mxfile>
